<?xml version="1.0" encoding="utf-8"?>
<svg xmlns="http://www.w3.org/2000/svg" xmlns:xlink="http://www.w3.org/1999/xlink" version="1.1" id="Layer_1" x="0px" y="0px" viewBox="0 0 24 24" style="enable-background:new 0 0 24 24;" xml:space="preserve">
<style type="text/css">
	.st0{fill:none;stroke:#000000;stroke-linecap:round;stroke-linejoin:round;}
</style>
<title>Network Marketing</title>
<g id="Network_Marketing">
	<g id="_Group_">
		<g id="_Group_2">
			<circle id="_Path_" class="st0" cx="12" cy="3.5" r="2" style="fill: none; stroke: #000000; stroke-linecap: round; stroke-linejoin: round;"/>
			<path id="_Path_2" class="st0" d="M12,7c-1.1,0.1-2.2,0.4-3.2,1C8.3,8.3,8,8.9,8,9.5v0.3c0,0.3,0.2,0.6,0.6,0.7h6.9     c0.3,0,0.6-0.3,0.6-0.7V9.5c0-0.6-0.3-1.2-0.8-1.5C14.2,7.4,13.1,7.1,12,7z" style="fill: none; stroke: #000000; stroke-linecap: round; stroke-linejoin: round;"/>
		</g>
		<g id="_Group_3">
			<circle id="_Path_3" class="st0" cx="5.5" cy="15.5" r="2" style="fill: none; stroke: #000000; stroke-linecap: round; stroke-linejoin: round;"/>
			<path id="_Path_4" class="st0" d="M5.5,19c-1.1,0.1-2.2,0.4-3.2,1c-0.5,0.3-0.8,0.9-0.8,1.6v0.3c0,0.3,0.2,0.6,0.6,0.7h6.9     c0.3,0,0.6-0.3,0.6-0.7v-0.3c0-0.6-0.3-1.2-0.8-1.6C7.7,19.4,6.6,19.1,5.5,19z" style="fill: none; stroke: #000000; stroke-linecap: round; stroke-linejoin: round;"/>
		</g>
		<g id="_Group_4">
			<circle id="_Path_5" class="st0" cx="18.5" cy="15.5" r="2" style="fill: none; stroke: #000000; stroke-linecap: round; stroke-linejoin: round;"/>
			<path id="_Path_6" class="st0" d="M18.5,19c-1.1,0.1-2.2,0.4-3.2,1c-0.5,0.3-0.8,0.9-0.8,1.6v0.3c0,0.3,0.2,0.6,0.6,0.7h6.9     c0.3,0,0.6-0.3,0.6-0.7v-0.3c0-0.6-0.3-1.2-0.8-1.6C20.7,19.4,19.6,19.1,18.5,19z" style="fill: none; stroke: #000000; stroke-linecap: round; stroke-linejoin: round;"/>
		</g>
		<polyline id="_Path_7" class="st0" points="12,12.5 12,15.5 9.5,17.5   " style="fill: none; stroke: #000000; stroke-linecap: round; stroke-linejoin: round;"/>
		<line id="_Path_8" class="st0" x1="12" y1="15.5" x2="14.5" y2="17.5" style="fill: none; stroke: #000000; stroke-linecap: round; stroke-linejoin: round;"/>
	</g>
</g>

	<metadata>
		<rdf:RDF xmlns:rdf="http://www.w3.org/1999/02/22-rdf-syntax-ns#" xmlns:rdfs="http://www.w3.org/2000/01/rdf-schema#" xmlns:dc="http://purl.org/dc/elements/1.1/">
			<rdf:Description about="https://iconscout.com/legal#licenses" dc:title="network; networking; marketing; people; team; social" dc:description="network; networking; marketing; people; team; social" dc:publisher="Iconscout" dc:date="2017-02-12" dc:format="image/svg+xml" dc:language="en">
				<dc:creator>
					<rdf:Bag>
						<rdf:li>Alpár - Etele Méder</rdf:li>
					</rdf:Bag>
				</dc:creator>
			</rdf:Description>
		</rdf:RDF>
    </metadata></svg>
