<svg xmlns="http://www.w3.org/2000/svg" enable-background="new 0 0 32 32" viewBox="0 0 32 32"><path d="M18.844,9.964c-1.057,0-2.062,0.182-2.997,0.503l0.638-4.266c0.122-0.818-0.444-1.583-1.262-1.706l-2.967-0.443   c-0.822-0.126-1.583,0.444-1.705,1.262l-0.196,1.31L8.029,7.502c-0.375,0.141-0.672,0.42-0.837,0.786S7.014,9.061,7.155,9.436   l1.767,4.677c0.141,0.375,0.42,0.672,0.786,0.837c0.197,0.089,0.407,0.134,0.617,0.134c0.14,0,0.279-0.037,0.417-0.077   c-0.57,1.19-0.897,2.527-0.897,3.957c0,3.483,1.993,6.505,4.896,8H9.344c-0.276,0-0.5,0.224-0.5,0.5s0.224,0.5,0.5,0.5h9.5   c4.962,0,9-4.038,9-9S23.807,9.964,18.844,9.964z M25.305,23.663c-0.013-0.002-0.024-0.01-0.037-0.011l-3.219-0.314l-0.961-1.786   l0.944-2.833l2.229-0.906l2.521,1.97c0.006,0.005,0.014,0.003,0.02,0.007C26.653,21.229,26.115,22.552,25.305,23.663z    M19.887,26.888c-0.342,0.045-0.689,0.076-1.043,0.076c-0.656,0-1.291-0.088-1.901-0.238c0-0.001,0-0.003,0-0.004l-0.947-3.077   l1.236-1.546h3.014l0.934,1.734l-1.264,2.923C19.896,26.799,19.893,26.844,19.887,26.888z M10.904,19.903l2.378-1.932l2.357,0.714   l0.845,2.746l-1.298,1.622h-3.205C11.417,22.111,11.039,21.045,10.904,19.903z M14.331,12.321c0.001-0.001,0.003,0,0.004-0.001   c0.088-0.059,0.188-0.116,0.283-0.173c0.075-0.046,0.149-0.092,0.226-0.136c0.169-0.093,0.349-0.185,0.545-0.277   c0.001-0.001,0.003-0.003,0.004-0.003c0.097-0.045,0.19-0.096,0.289-0.137l2.496,1.688l0.077,2.774l-2.307,1.678l-2.435-0.738   l-1.125-2.775c0.525-0.721,1.152-1.35,1.884-1.853c0.003-0.002,0.005-0.005,0.008-0.007C14.296,12.348,14.312,12.333,14.331,12.321   z M20.184,21.099h-2.756l-0.806-2.621l2.222-1.616l2.215,1.611L20.184,21.099z M12.547,17.28L10.86,18.65   c0.046-1.226,0.35-2.373,0.869-3.388L12.547,17.28z M24.962,17.093l0.777-2.165c0.631,1.073,1.015,2.304,1.084,3.619L24.962,17.093   z M25.041,13.913l-1.052,2.932l-2.225,0.904l-2.512-1.827l-0.074-2.66l2.406-1.805C22.946,11.956,24.139,12.809,25.041,13.913z    M20.373,11.115L18.659,12.4l-1.768-1.196c0.624-0.151,1.275-0.24,1.953-0.24C19.367,10.964,19.878,11.018,20.373,11.115z    M11.541,5.462c0.02-0.132,0.089-0.249,0.197-0.328c0.107-0.079,0.238-0.112,0.372-0.092l2.967,0.443   c0.132,0.02,0.249,0.089,0.328,0.197c0.08,0.108,0.113,0.24,0.093,0.372l-0.725,4.863c-0.174,0.086-0.343,0.178-0.51,0.275   c-0.008,0.004-0.017,0.008-0.024,0.013l-1.469-3.888c-0.141-0.375-0.42-0.672-0.786-0.837c-0.091-0.041-0.185-0.073-0.281-0.095   c-0.097-0.023-0.195-0.035-0.293-0.038L11.541,5.462z M10.501,14.051c-0.125,0.047-0.262,0.042-0.382-0.012   c-0.122-0.055-0.214-0.154-0.262-0.279L8.091,9.082C8.043,8.957,8.048,8.821,8.103,8.7c0.055-0.122,0.154-0.214,0.279-0.262   l2.807-1.06c0.06-0.023,0.122-0.032,0.184-0.031c0.068,0.001,0.135,0.015,0.198,0.043c0.122,0.055,0.214,0.154,0.262,0.279   l1.551,4.106c-0.002,0.001-0.003,0.003-0.005,0.005c-0.704,0.532-1.322,1.164-1.838,1.88L10.501,14.051z M12.677,24.054h2.398   l0.707,2.298C14.568,25.848,13.503,25.054,12.677,24.054z M21.052,26.648l0.997-2.305l2.481,0.242   C23.579,25.546,22.386,26.264,21.052,26.648z"/><path d="M7.344 24.964h2c.276 0 .5-.224.5-.5s-.224-.5-.5-.5h-2c-.276 0-.5.224-.5.5S7.068 24.964 7.344 24.964zM7.344 26.964h-1c-.276 0-.5.224-.5.5s.224.5.5.5h1c.276 0 .5-.224.5-.5S7.621 26.964 7.344 26.964zM5.15 24c-.06.03-.11.06-.16.11-.09.1-.14.22-.14.35 0 .14.05.26.14.36.09.09.22.15.35.15s.26-.06.36-.15c.04-.05.08-.1.11-.16.02-.07.03-.13.03-.2 0-.13-.05-.26-.14-.35C5.56 23.97 5.34 23.92 5.15 24zM6.455 6.973c.098.137.251.21.408.21.1 0 .201-.03.289-.092C7.377 6.932 7.43 6.62 7.271 6.394L6.692 5.579C6.532 5.354 6.22 5.3 5.995 5.46 5.77 5.62 5.717 5.932 5.876 6.158L6.455 6.973zM5.642 9.128c.24 0 .451-.172.493-.417.046-.272-.137-.53-.41-.577L4.739 7.968c-.273-.043-.53.137-.577.41C4.117 8.65 4.3 8.908 4.572 8.954l.986.167C5.586 9.125 5.614 9.128 5.642 9.128z"/></svg>