<svg width="174" height="55" viewBox="0 0 174 55" fill="none" xmlns="http://www.w3.org/2000/svg">
<path d="M41.4505 9.76389H42.3716V44.0296H41.4505V9.76389Z" fill="black"/>
<path d="M139.458 26.8047L133.747 34.5421H129.786L135.497 26.8047L130.339 19.712H134.3L139.458 26.8047ZM120.759 11.1456L113.482 21.0937L116.061 24.6861L122.878 15.3828H164.052V38.8714H122.97L115.969 28.4627L113.39 32.2393L120.667 43.1085H168.197V11.2377H120.759V11.1456Z" fill="black"/>
<path d="M17.0408 4.69772C17.4092 4.78984 17.7777 5.06621 18.054 5.25043C17.9619 5.34254 17.9619 5.3425 17.9619 5.43461C18.1461 5.43461 18.3303 5.52677 18.3303 5.71099V5.80308H18.4224V5.89517C18.3303 6.0794 18.6988 6.35577 18.4224 6.44788C18.4224 6.44788 18.4225 6.53997 18.5146 6.53997C18.5146 6.63208 18.3303 6.63211 18.2382 6.63211V6.7242H18.3303H18.2382L18.4224 6.81629C18.5146 6.90841 18.3303 6.72418 18.3303 6.81629C18.2382 6.90841 18.3303 7.00053 18.2382 7.00053L18.3303 7.09267C17.4092 7.2769 16.5802 6.81633 15.9354 6.44788C15.7512 6.53999 15.9354 6.72418 15.8433 6.81629C15.7512 6.90841 15.6591 7.09265 15.7512 7.18476H15.6591C15.567 7.18476 15.6591 7.27689 15.6591 7.369C15.567 7.18478 15.8433 7.00052 15.7512 6.81629C15.8433 6.81629 15.8433 6.72423 15.8433 6.63211H15.567C15.6591 6.81634 15.3827 7.00054 15.4748 7.18476C15.2906 7.36899 15.6591 7.64534 15.2906 7.82956C15.2906 7.92167 15.0143 8.01375 15.1064 8.19798C15.1985 8.3822 15.3827 8.19801 15.4748 8.29012C15.7512 8.38223 15.9354 8.65855 16.1196 8.84277L16.2118 8.75068C16.4881 8.38223 16.6723 8.01375 16.9486 7.73742C17.0408 7.82953 17.1329 7.73744 17.1329 7.64533C17.225 7.4611 17.4092 7.36897 17.5934 7.27685C18.054 7.18474 18.5146 7.18475 18.9751 7.46109C19.8041 7.09264 20.541 6.63209 21.3701 6.26364C22.1069 5.98731 22.9359 5.52676 23.6728 5.98732C23.765 6.17154 24.0413 6.35578 23.9492 6.63211C23.765 6.90845 23.765 7.18475 23.4886 7.46109C23.4886 7.64531 23.3044 7.82956 23.2123 7.82956C23.3044 7.92167 23.1202 7.92166 23.2123 8.10589C23.0281 8.10589 23.0281 8.19801 22.9359 8.29012C23.0281 8.29012 23.0281 8.38221 23.0281 8.38221C24.0413 8.2901 25.3309 7.73744 26.252 8.56645C26.7125 9.02701 26.8047 9.67182 26.8968 10.3166C26.8968 10.4087 26.8968 10.685 26.7125 10.685C26.8047 10.685 26.8047 10.8692 26.8047 10.9613C26.7126 11.1456 26.5283 11.0535 26.5283 11.3298C26.4362 11.3298 26.252 11.4219 26.252 11.3298L26.1599 11.4219L26.5283 11.8825C26.6204 11.9746 26.7125 12.1588 26.7125 12.2509C26.7125 12.343 26.6204 12.2509 26.6204 12.343H26.7125C26.6204 12.4351 26.7125 12.6194 26.6204 12.7115C26.4362 12.7115 26.4362 12.8957 26.3441 12.9878C26.7126 12.8957 27.2652 12.8957 27.6337 13.08C28.1863 14.0011 29.2917 14.3695 29.9365 15.2906C30.0286 15.4749 30.1207 15.8433 30.0286 16.0275C29.8444 16.1196 29.8444 16.396 29.6601 16.396C29.568 16.396 29.568 16.396 29.568 16.4881H29.6601C29.4759 16.5802 29.2917 16.7645 29.0154 16.7645C28.8311 16.8566 28.4627 16.6723 28.5548 17.0408C29.0154 18.054 29.568 19.3436 28.6469 20.2647C28.5548 20.1726 28.5548 20.2647 28.4627 20.1726C28.3706 20.1726 28.4627 20.2647 28.4627 20.3568C28.4627 20.3568 28.5548 20.3568 28.5548 20.4489C28.4627 20.5411 28.3706 20.541 28.2785 20.541C28.2785 20.541 28.2785 20.6332 28.1863 20.7253C28.1863 20.541 28.0942 20.7253 28.0942 20.541L28.0021 20.6331C28.0942 20.7252 28.0942 20.8174 28.0942 20.9095C28.0021 21.0016 27.91 20.7253 27.8179 20.8174C27.8179 20.9095 27.7258 20.8174 27.7258 20.9095L27.8179 21.0016C27.7258 21.0937 27.6337 21.0937 27.5416 21.0937C27.4494 21.0937 27.3573 21.0016 27.1731 21.0937L27.2652 21.1858C27.1731 21.2779 27.1731 21.0937 27.081 21.1858C26.8968 21.0937 26.8047 21.1858 26.5283 21.1858C26.4362 21.2779 26.252 21.0016 26.1599 21.1858V21.0937L26.0678 21.1858C26.1599 21.0016 25.7914 21.0937 25.9756 20.9095C25.7914 20.9095 26.0678 20.7253 25.7914 20.7253L25.8835 20.6331C25.7914 20.6331 25.7914 20.4489 25.6072 20.541C25.6993 20.4489 25.5151 20.2647 25.7914 20.2647H25.5151C25.6072 20.2647 25.6072 20.2647 25.6072 20.1726V20.0805L25.6993 19.9884H25.5151C25.6072 19.9884 25.6072 19.9884 25.6993 19.8962H25.5151H25.6072H25.423V19.9884C25.3309 20.0805 25.3309 19.8963 25.2387 19.9884C25.0545 20.4489 24.8703 21.1858 24.2255 21.2779C24.0413 21.1858 23.8571 21.3701 23.5807 21.1858C23.0281 21.1858 22.6596 20.7253 22.1991 20.7253C22.1069 20.4489 21.8306 20.7253 21.7385 20.541V20.6331L21.6464 20.7253C21.9227 21.4622 22.2912 22.1991 22.1069 23.0281C22.6596 22.936 23.1202 23.3965 23.5807 23.6729C23.765 23.3965 23.4886 23.0281 23.5807 22.7518C23.4886 22.5675 23.4886 22.3833 23.3965 22.199C23.4886 22.1069 23.3044 22.0148 23.3965 21.9227C23.3965 21.7385 23.3965 21.4622 23.6728 21.3701C24.2255 21.4622 24.1334 22.1069 24.4097 22.4754C24.594 23.5807 24.8703 24.7782 24.6861 25.7914C24.594 25.9757 24.4097 26.1599 24.2255 26.252C24.1334 26.3441 23.9492 26.4362 23.8571 26.4362C22.9359 26.4362 22.4754 25.6072 21.7385 25.3309C21.1858 26.0678 21.1858 27.1731 20.2647 27.4495C19.9884 27.6337 19.712 27.5416 19.4357 27.6337C19.1594 27.6337 18.9751 27.4495 18.7909 27.4495C18.6988 27.2652 18.3303 27.5416 18.3303 27.1731C18.2382 27.081 17.9619 27.2652 18.054 27.081C18.054 26.9889 17.9619 27.081 17.9619 27.081C17.8698 27.081 17.7777 26.9889 17.6856 26.9889C17.5934 26.8968 17.5934 26.7125 17.4092 26.6204C17.4092 26.5283 17.5013 26.5284 17.3171 26.4362H17.225C17.1329 26.3441 17.0408 26.3441 17.1329 26.1599H17.225C17.1329 26.1599 17.1329 25.9756 17.1329 25.8835V25.7914L17.0408 25.6993C17.225 25.6993 17.0408 25.6072 17.0408 25.5151V25.6072C17.0408 25.5151 17.0408 25.423 16.9486 25.3309L17.0408 25.423C17.1329 25.3309 17.1329 25.2388 17.0408 25.1466C17.0408 25.1466 17.0408 25.2387 17.1329 25.2387L17.225 25.0546V25.1466C17.3171 25.0545 17.225 24.9624 17.225 24.7782L17.3171 24.8703V24.7782C17.4092 24.7782 17.4092 24.9624 17.5013 24.8703C17.4092 24.7782 17.3171 24.6861 17.4092 24.594L17.3171 24.5019C17.3171 24.4097 17.4092 24.594 17.4092 24.594L17.3171 24.4098V24.5019H17.4092V24.6861H17.5013C17.5013 24.6861 17.5013 24.5019 17.4092 24.5019V24.4098L17.6856 24.594C17.7777 24.4098 17.5934 24.5019 17.5934 24.4098C17.5934 24.4098 17.6856 24.3176 17.5934 24.3176C17.5013 24.4097 17.4092 24.4098 17.4092 24.4098C17.225 24.4098 17.1329 24.594 16.9486 24.594C16.5802 24.6861 16.1196 24.7782 15.7512 24.5019C15.6591 24.3176 15.4749 24.2255 15.3828 24.0413C15.2906 23.9492 15.2906 23.9492 15.2906 23.8571C15.3828 23.7649 15.2906 23.5807 15.1985 23.3965C15.1064 23.4886 15.1985 23.4886 15.1064 23.5807C15.1064 23.3965 15.2906 23.1202 15.2906 22.9359C15.2906 22.8438 15.1064 22.9359 15.1064 22.9359C15.0143 22.7517 15.1985 22.7517 15.1064 22.6596C14.738 22.5675 14.738 23.028 14.3695 22.9359C14.1853 23.1202 13.8168 23.1202 13.6326 23.2123C13.7247 23.4886 13.909 23.8571 13.909 24.1334C14.0011 24.3177 13.7247 24.594 14.0011 24.594C14.2774 24.594 14.738 24.4097 14.9222 24.6861C15.1064 24.8703 15.1064 25.0545 15.1985 25.3309C15.1064 25.6993 14.738 25.9757 14.4616 26.252C14.0011 26.252 13.5405 26.0678 13.0799 26.252C12.5273 26.4362 11.9746 26.6205 11.3298 26.7126C11.0535 26.7126 10.685 26.5283 10.5008 26.252C10.5008 26.0678 10.4087 25.9757 10.4087 25.7914L10.5008 25.8835V25.7914C10.4087 25.6993 10.2244 25.5151 10.4087 25.423C10.5008 25.423 10.685 25.3308 10.685 25.2387H10.5929C10.5929 25.1466 10.5929 24.9624 10.685 24.8703C10.9614 24.9624 10.685 24.6861 10.8692 24.594C10.685 24.4098 10.3166 24.5019 10.1323 24.5019C9.7639 24.4097 9.39544 24.5019 9.11911 24.2255C8.93488 24.2255 8.75066 24.1334 8.65855 23.9492C8.47432 23.8571 8.2901 23.6729 8.19798 23.4886H8.2901C8.38221 23.3965 8.2901 23.3965 8.2901 23.3044H8.19798C8.19798 23.2123 7.73744 23.2123 8.01378 23.0281C8.01378 23.0281 8.01377 22.9359 7.92166 22.9359C7.73743 22.6596 7.55321 22.2912 7.4611 21.8306C7.55321 21.7385 7.5532 21.5543 7.73742 21.4622L7.64531 21.3701C7.82953 21.3701 7.82955 21.1858 7.92166 21.1858L8.01378 21.0937V21.0016C8.10589 21.0016 8.19798 21.0016 8.10587 20.9095C8.19798 20.9095 8.38221 20.9095 8.2901 20.8174C8.38221 20.9095 8.38223 20.8174 8.47434 20.8174H8.56643V20.9095L8.65855 20.8174L8.75066 20.9095C8.93489 20.8174 8.75067 20.7252 8.9349 20.6331C8.9349 20.7252 9.11911 20.6331 9.11911 20.541V20.4489L9.30334 20.3568C9.21123 20.3568 9.30335 20.4489 9.39546 20.4489C9.57968 20.3568 9.39544 20.2647 9.48755 20.1726H9.39546V20.0805C9.39546 20.0805 9.30334 20.0805 9.30334 20.1726C9.30334 20.0805 9.39544 20.0805 9.48755 20.0805C9.48755 20.1726 9.57967 20.1726 9.67179 20.1726C9.67179 20.1726 9.76391 20.1726 9.85602 20.0805C9.85602 20.0805 9.85602 19.9884 9.7639 19.9884L9.67179 20.0805C9.67179 19.9884 9.7639 19.9884 9.7639 19.9884C9.85602 19.9884 10.1324 19.9884 10.2245 19.8962H10.3166V19.9884C10.4087 20.0805 10.5008 19.8042 10.685 19.9884V19.8962C10.8693 19.9884 10.7771 19.6199 10.9614 19.8041L11.1456 19.6199C11.1456 19.712 11.1456 19.712 11.2377 19.8041C11.3298 19.712 11.3298 19.8963 11.3298 19.8041V19.712C11.4219 19.8041 11.4219 20.0805 11.3298 20.1726C11.2377 21.0937 9.21122 21.8306 10.5929 22.5675C10.685 22.6596 10.8692 22.6596 10.9614 22.5675C11.0535 22.3833 11.2377 22.5675 11.3298 22.5675C11.514 22.5675 11.6061 22.3833 11.8825 22.2912C12.1588 22.107 11.7904 21.9227 11.8825 21.6464C11.7904 21.3701 11.6983 20.9095 11.9746 20.7253C11.9746 20.541 12.0667 20.4489 12.0667 20.3568C12.0667 20.3568 11.9746 20.4489 12.0667 20.4489C12.1588 20.4489 12.1588 20.3568 12.1588 20.2647C12.1588 20.2647 12.2509 20.2647 12.2509 20.3568C12.2509 20.2647 12.343 20.2647 12.343 20.1726H12.4352C12.5273 20.1726 12.6194 19.9884 12.7115 20.0805C12.8036 20.1726 12.9878 19.8963 12.9878 19.9884C13.0799 19.8042 12.8036 19.8963 12.7115 19.8041C11.514 19.6199 10.2244 19.1593 9.94811 17.8698C9.76389 17.4092 10.0402 17.0408 10.3166 16.6723C10.5929 16.4881 10.7771 16.396 11.0535 16.2118C10.8692 15.8433 10.3166 15.6591 10.2245 15.2906C10.0402 15.2906 10.0402 14.9222 9.85602 14.9222C9.48757 14.3695 9.67178 13.5405 10.0402 13.08C10.4087 12.6194 10.8692 12.0667 11.4219 12.0667C11.6061 12.1588 11.8825 11.9746 11.9746 12.2509H12.0667C11.9746 12.4352 12.343 12.3431 12.2509 12.6194C12.5273 12.5273 12.5273 12.8957 12.7115 12.8957C12.7115 12.9878 12.8957 13.0799 12.9878 13.1721C12.9878 13.0799 13.0799 13.1721 13.0799 13.1721L13.172 13.08C13.172 13.1721 13.172 13.172 13.2642 13.2641C13.2642 13.2641 13.2642 13.3563 13.3563 13.3563C13.4484 13.3563 13.3563 13.2641 13.4484 13.2641C13.4484 13.3563 13.5405 13.4484 13.6326 13.4484C13.6326 13.5405 13.7247 13.4484 13.7247 13.5405V13.6326L13.6326 13.5405V13.6326L13.5405 13.7247C13.5405 13.8168 13.6326 13.8169 13.6326 13.8169V13.7247C13.5405 14.0932 13.2642 14.1853 12.9878 14.4617C12.8036 14.5538 12.7115 14.6459 12.6194 14.738C12.5273 14.8301 12.4351 15.0143 12.2509 15.0143L12.1588 15.1064H12.0667C12.0667 15.1064 11.9746 15.1064 11.9746 15.1985H12.0667C12.4352 15.3828 12.8036 15.6591 13.172 15.567C13.2642 15.8433 13.6326 15.8433 13.5405 16.1197C13.6326 16.1197 13.6326 16.2118 13.7247 16.2118C13.5405 16.4881 14.0932 16.6723 13.909 16.9486V17.225C13.909 17.1329 13.9089 17.1329 13.8168 17.1329C13.9089 17.5013 13.7247 17.9619 13.5405 18.2382C13.3563 18.4225 13.1721 18.5146 12.9878 18.6988C13.6326 18.883 14.2774 19.1593 14.9222 18.9751C15.0143 18.9751 15.1064 18.9752 15.1985 19.0673C15.567 19.3436 15.1064 19.9884 15.7512 19.9884V20.1726C15.8433 20.2647 16.0275 20.2647 15.9354 20.4489C15.6591 20.7253 15.2906 20.4489 15.0143 20.541C14.6458 20.3568 14.2774 20.4489 13.909 20.3568C13.909 20.6331 14.0011 20.9095 14.0011 21.1858L14.0932 21.3701C14.0932 21.5543 14.2774 21.7385 14.3695 21.7385L14.4616 21.6464L14.5537 21.7385C14.6458 21.7385 14.5537 21.6464 14.5537 21.6464C14.6458 21.7385 14.738 21.6464 14.738 21.5542V21.6464C14.8301 21.6464 14.738 21.4622 14.9222 21.4622C14.9222 21.5543 14.9222 21.5542 15.0143 21.5542V21.4622V21.5542C15.0143 21.37 15.1985 21.4622 15.2906 21.3701C15.2906 21.5543 15.3827 21.3701 15.4748 21.3701L15.3828 21.2779C15.567 21.2779 15.567 21.4622 15.6591 21.1858C15.6591 21.0937 15.9354 21.1858 16.0275 21.0016C16.2117 21.0016 16.5802 20.8174 16.7644 20.9095C17.4092 21.278 17.5013 21.9227 17.5013 22.6596C17.5934 22.8438 17.6855 22.5675 17.7777 22.6596C18.054 22.3833 18.2382 22.199 18.5146 22.0148C18.7909 21.7385 18.883 21.1858 19.1593 20.8174C19.3436 20.7253 19.5278 20.7253 19.712 20.8174C19.8962 20.9095 19.9884 21.1858 19.8962 21.3701C19.712 21.6464 19.8041 21.9227 19.6199 22.199C19.5278 22.2912 19.4357 22.4754 19.3436 22.5675C19.8041 22.8439 20.4489 22.7517 20.9095 22.3833L21.0016 22.199C20.8174 21.4621 20.541 20.8174 20.3568 20.0805C20.2647 19.6199 20.6332 19.2515 20.9095 18.9751C21.8306 18.6067 22.5675 19.2515 23.3965 19.5278H23.4886C22.9359 18.9752 22.2912 18.5146 21.6464 18.054C21.4622 18.054 21.2779 18.1461 21.1858 18.1461C21.1858 18.1461 21.2779 18.054 21.1858 18.054C21.0937 18.054 21.0937 18.1461 21.0937 18.1461C21.0016 17.9619 20.8174 17.8698 20.9095 17.5934C21.1858 17.3171 21.0016 16.8566 21.0937 16.5802C21.0016 16.1197 21.0937 15.4749 20.8174 15.0143C20.6331 15.1064 20.4489 15.0143 20.3568 15.1985L20.4489 15.2906L20.3568 15.3828L20.2647 15.1985C20.0805 15.1985 20.0805 15.3828 19.9884 15.3828L20.0805 15.2906C19.9883 15.2906 19.8962 15.1985 19.8962 15.2906C19.712 15.567 19.6199 15.1986 19.3436 15.3828C19.2515 15.3828 19.1593 15.2906 19.1593 15.2906C18.7909 15.4749 18.5146 15.1064 18.3303 14.8301C17.9619 14.3695 18.054 13.6326 18.4224 13.08C18.4224 12.9879 18.3303 12.8957 18.3303 12.8036C18.1461 12.8036 17.9619 12.8957 17.8698 13.08C17.8698 13.08 17.7777 12.9879 17.6856 13.08L17.5934 13.1721C17.3171 12.9878 17.1329 13.4484 16.8565 13.4484C16.6723 13.6326 16.5802 13.909 16.3039 14.0011C16.1197 13.909 16.0275 14.0011 15.8433 13.9089C15.6591 13.8168 15.3828 13.7248 15.3828 13.5405C15.1985 13.2642 15.2906 12.8957 15.3828 12.6194C16.1197 12.251 16.7644 11.8825 17.5013 11.6061C17.5934 11.514 17.7777 11.6061 17.8698 11.4219C18.5146 11.3298 19.3436 11.4219 19.8962 11.8825C19.9884 12.0667 20.3568 12.1588 20.2647 12.4352C20.541 12.5273 20.541 12.8957 20.541 13.08C20.541 13.1721 20.4489 13.3563 20.541 13.4484H20.6331C20.541 13.6326 20.4489 13.8168 20.541 13.9089C20.9095 14.0932 21.2779 13.909 21.6464 14.0011C21.6464 14.0932 21.7385 14.0932 21.8306 14.0932C21.8306 14.0011 21.9227 14.0932 21.9227 14.0011C22.0148 14.0011 22.2912 14.001 22.1991 14.1853H22.1069C22.1069 14.2774 22.1069 14.2774 22.1991 14.2774C22.2912 14.1853 22.3833 14.2774 22.2912 14.0932C22.3833 14.1853 22.2912 14.3695 22.3833 14.1853V14.0932C22.4754 14.2774 22.7517 14.1853 22.7517 14.4617C22.9359 14.3695 23.0281 14.6458 23.2123 14.8301C23.3044 15.0143 23.4886 15.1064 23.3044 15.2906C23.4886 15.3827 23.3965 15.567 23.3965 15.7512C23.3965 15.8433 23.3044 15.7512 23.3044 15.8433C23.2123 15.9354 23.3965 15.9354 23.3965 16.0275H23.4886C23.5807 16.2117 23.3044 16.2118 23.3965 16.396C23.3044 16.396 23.2123 16.5802 23.1202 16.5802C23.1202 16.6723 23.0281 16.6723 22.9359 16.6723C22.9359 16.5802 22.8438 16.5802 22.8438 16.5802L22.9359 16.6723L22.8438 16.5802C22.8438 16.6723 22.7517 16.6723 22.7517 16.7645V16.6723C22.4754 16.5802 22.3833 16.8565 22.1069 16.9486V16.8565C21.9227 17.0408 21.9227 16.6723 21.8306 16.8565L21.7385 16.9486C23.0281 17.5934 24.4097 18.3303 25.423 19.4357C25.5151 19.712 25.6993 19.8041 25.7914 20.0805C26.5283 19.8041 27.1731 19.5278 27.8179 19.1594L27.91 19.0673V19.1594C28.0021 19.1594 28.0021 19.0673 28.0942 19.0673V18.9751C28.1863 18.9751 28.3706 18.7909 28.3706 18.6067C28.4627 18.3304 28.2785 18.1461 28.2785 17.8698C28.0942 17.6855 28.0942 17.3171 27.91 17.1329C27.8179 17.225 27.91 17.4092 27.7258 17.4092C27.8179 17.5013 27.6337 17.5935 27.7258 17.6856C27.5416 18.054 27.2652 18.5145 26.9889 18.7909C26.7126 18.883 26.5283 19.2514 26.252 19.2514C26.1599 19.2514 26.1599 19.1593 26.1599 19.2514H26.0678V19.1594C25.9757 19.0672 25.8835 19.1594 25.8835 19.1594H25.7914C25.7914 19.1594 25.8835 19.0673 25.7914 19.0673L25.6993 19.1594C25.6072 19.0672 25.6993 18.9751 25.6072 18.9751C25.423 18.9751 25.3309 18.7909 25.1466 18.6067H25.0545V18.6988C24.9624 18.6988 24.9624 18.5146 24.8703 18.6067C24.8703 18.6067 24.8703 18.5146 24.7782 18.4225L24.6861 18.6988C24.5019 17.7777 25.3309 17.225 25.6993 16.4881H25.6072C25.423 16.396 25.2388 16.396 25.1466 16.2118C24.8703 16.3039 24.594 16.1196 24.3176 16.0275C24.3176 15.8433 24.2255 15.7512 24.1334 15.6591C24.0413 15.567 24.0413 15.3828 23.8571 15.3828C23.5807 14.8301 23.8571 14.3695 23.9492 13.8169C24.0413 13.5405 24.3176 13.2642 24.594 13.08C24.6861 12.9879 24.594 12.8957 24.594 12.8036C24.4097 12.8036 24.594 12.8957 24.4097 12.8957C24.3176 12.9878 24.3176 13.0799 24.2255 12.9878C24.2255 12.8957 24.2255 12.8957 24.1334 12.8036C24.0413 12.8957 24.0413 12.7115 23.9492 12.7115L23.8571 12.8036C23.765 12.7115 23.765 12.8036 23.6728 12.8036C23.6728 12.8036 23.6728 12.8957 23.765 12.8957H23.8571C23.8571 13.08 23.765 12.9878 23.5807 12.9878C23.4886 12.9878 23.5807 12.7115 23.3965 12.8036V12.8957C23.3044 12.9878 23.3044 12.8036 23.2123 12.8957C23.0281 12.8957 22.8438 12.8036 22.5675 12.8957L22.6596 12.8036C22.5675 12.8036 22.4754 12.8957 22.3833 12.8036C22.1991 12.8036 21.9227 12.8036 21.7385 12.7115C21.6464 12.5273 21.6464 12.4352 21.6464 12.2509C21.7385 12.2509 21.7385 12.1588 21.8306 12.1588C21.6464 12.0667 21.5543 11.8825 21.4621 11.6983C21.6464 11.6062 21.9227 11.6062 22.1069 11.6983C23.2123 11.5141 24.1334 11.6062 25.3309 11.6983C25.2388 11.1456 25.5151 10.5008 25.2387 9.94813C25.1466 9.85602 24.9624 9.7639 24.8703 9.7639C24.7782 9.85601 24.6861 9.7639 24.594 9.7639C24.5019 9.85601 24.4097 9.85602 24.3176 9.94813C24.1334 9.85602 24.1334 10.1324 23.9492 9.94813C23.8571 10.1324 23.765 9.856 23.6728 10.0402H23.765C23.5807 10.1323 23.3965 10.2245 23.1202 10.2245H23.0281C23.0281 10.4087 22.7517 10.1324 22.7517 10.4087C22.6596 10.3166 22.3833 10.3166 22.1991 10.2245C22.1069 10.3166 21.9227 10.3166 21.8306 10.3166C21.8306 10.3166 21.9227 10.3166 21.9227 10.2245C21.9227 10.1323 21.8306 10.2245 21.7385 10.1324V10.2245C21.5543 10.3166 21.37 10.1324 21.2779 9.94813C20.9095 9.11912 21.7385 8.56644 21.9227 7.92165H21.8306H21.9227V7.82956C21.6464 7.73745 21.8306 8.10589 21.5543 8.10589C21.5543 8.10589 21.5543 8.0138 21.4621 8.0138C21.37 8.10591 21.37 8.01377 21.2779 8.10589C21.2779 8.10589 21.2779 8.19798 21.3701 8.19798L21.4621 8.10589C21.37 8.10589 21.1858 8.19801 21.0937 8.29012V8.19798V8.29012H21.0016C20.9095 8.29012 21.0016 8.38221 21.0016 8.38221C20.8174 8.47432 20.6332 8.56646 20.4489 8.75068C20.541 9.02702 20.9095 9.02703 20.9095 9.39548C21.0937 9.48759 20.9095 9.67178 21.0937 9.7639C21.0937 9.85601 21.0016 9.67178 20.9095 9.7639C21.0016 9.85601 20.9095 9.94814 20.9095 10.1324C20.9095 10.1324 20.8174 10.1323 20.8174 10.2245C20.9095 10.3166 20.6331 10.4087 20.7253 10.5008L20.8174 10.5929C20.7253 10.7772 20.4489 10.7771 20.4489 10.9613L20.3568 10.8693C20.3568 10.9614 20.2647 10.8692 20.2647 10.9613C20.2647 11.1456 20.4489 10.9613 20.541 10.9613C20.541 10.9613 20.541 11.1456 20.4489 11.0535H20.3568C20.3568 11.0535 20.1726 11.0535 20.1726 11.1456H20.2647V11.2377L20.3568 11.1456C20.4489 11.2377 20.2647 11.2377 20.2647 11.2377C20.3568 11.3298 20.4489 11.2377 20.541 11.2377C20.3568 11.4219 20.1726 11.4219 19.8962 11.4219C18.9751 11.2377 18.6988 10.2245 17.8698 9.94813L17.7777 10.0402C17.5934 10.0402 17.6856 10.2245 17.5013 10.3166V10.5008C17.3171 10.685 17.3171 10.9613 17.1329 10.9613C17.0408 11.3298 16.7644 11.514 16.4881 11.7904C15.9354 11.8825 15.3827 11.6983 15.0143 11.3298L14.9222 11.4219C14.9222 11.8825 14.4616 12.5273 15.0143 12.8957C15.0143 13.1721 15.1064 13.5405 14.8301 13.8169C14.6459 13.8169 14.4616 13.909 14.3695 14.0932L14.2774 14.0011C14.1853 14.0932 14.1853 14.2774 13.909 14.2774C13.8168 14.0011 14.0932 13.909 14.0011 13.6326C13.909 13.5405 13.6326 13.5405 13.6326 13.2641C13.7247 12.1588 13.8168 11.1456 14.0932 10.1324C14.0932 10.0403 14.1853 10.0402 14.1853 9.94813C13.9089 9.94813 13.6326 9.85601 13.3563 9.7639C12.9878 9.57967 12.7115 9.39546 12.5273 9.02701C12.4352 9.21123 12.6194 9.48758 12.5273 9.67181C12.5273 9.85603 12.8036 10.0402 12.5273 10.2245C12.5273 10.5008 12.6194 10.5929 12.7115 10.8693C12.8036 10.9614 12.8957 11.1456 12.8036 11.2377C12.6194 11.2377 12.6194 11.4219 12.5273 11.5141C12.6194 11.6062 12.7115 11.5141 12.8036 11.5141C12.4351 11.4219 12.4352 12.0667 11.9746 11.8825H11.8825L11.7904 11.6983C11.3298 11.8825 10.7771 11.6983 10.5008 12.0667C10.2245 13.0799 9.30333 14.0011 8.19798 14.0932C8.2901 14.2774 8.10588 14.4616 8.38222 14.5537L8.47434 14.738C8.47434 14.8301 8.47433 14.6458 8.38222 14.6458C8.29011 14.9222 8.75066 14.8301 8.65855 15.1985C8.65855 15.2907 8.75066 15.3828 8.75066 15.4749H8.84278V15.3828C9.02701 15.567 8.75065 15.7512 9.02699 15.9354C9.21121 16.0275 9.11911 16.3039 9.11911 16.4881C9.02699 16.9486 8.56643 17.5934 8.10587 17.7777C8.10587 17.8698 8.10587 17.9619 8.19798 17.9619C8.56643 18.4225 8.84276 18.883 9.48755 19.0673C9.57966 19.1594 9.57967 19.2515 9.67179 19.4357C9.57967 19.6199 9.48757 19.8041 9.30334 19.8962C7.92166 19.8041 6.90842 18.6067 6.07941 17.5013C5.80308 17.0408 5.80308 16.396 6.07941 15.9354C6.44786 15.567 6.81631 15.3828 7.36898 15.3828L7.4611 15.2906C7.09265 14.3695 6.44787 13.2641 7.09265 12.343C7.36899 12.0667 7.73742 11.9746 8.10587 11.8825C8.19798 11.7904 8.47432 11.7904 8.56643 11.6983C8.75065 11.6983 8.93488 11.6062 9.02699 11.5141C9.39544 11.0535 9.39544 10.4087 9.94811 10.0402L10.2245 9.85604V9.94813L10.4087 9.85604C10.4087 9.85604 10.5008 9.94811 10.4087 10.0402C10.5008 10.1323 10.5008 10.1324 10.5929 10.1324V10.0402C10.685 10.0402 10.7771 10.2245 10.7771 10.3166H10.8692C10.9613 10.2245 10.8692 10.2245 10.8692 10.1324C10.9613 10.2245 11.0535 10.1324 11.1456 10.4087C11.0535 10.4087 10.9613 10.3166 10.8692 10.5008C10.9613 10.5008 10.8692 10.685 10.8692 10.685L11.1456 10.7772H11.0535C11.1456 10.7772 11.1456 11.0535 11.3298 10.9613C11.3298 10.9613 11.4219 10.9614 11.4219 11.0535H11.514C11.6061 10.9614 11.4219 10.7771 11.4219 10.685H11.3298V10.7772C11.2377 10.8693 11.2377 10.685 11.2377 10.5929C11.2377 10.5008 11.2377 10.5008 11.1456 10.5008H11.0535V10.4087C11.1456 10.5008 11.1456 10.3166 11.1456 10.3166C11.1456 10.4087 11.2377 10.4087 11.3298 10.4087V10.5008H11.2377C11.2377 10.5929 11.3298 10.5008 11.3298 10.5929V7.82956C11.4219 7.46111 11.4219 7.09266 11.6983 6.90844C11.6983 6.6321 12.0667 6.72423 12.2509 6.63211C12.8957 6.63211 13.2642 7.18479 13.6326 7.55324C13.8168 7.64535 13.9089 7.92165 14.0932 7.92165C14.4616 7.73743 14.3695 7.27687 14.5537 7.00053C14.6458 6.90842 14.738 7.00052 14.8301 6.81629C14.9222 6.72418 14.6459 6.72423 14.8301 6.63211C14.9222 6.54 14.9222 6.35575 14.9222 6.26364C14.9222 6.26364 15.0143 6.26366 15.0143 6.17155C15.1064 6.26366 15.1064 6.17152 15.1985 6.07941C15.1064 5.89518 15.2906 5.80308 15.2906 5.80308H15.3828C15.4749 5.52674 15.7512 5.34254 16.1196 5.25043C16.396 5.06621 16.7644 5.06619 17.1329 5.06619L17.0408 4.69772ZM18.1461 6.63211C18.1461 6.72423 18.1461 6.63211 18.1461 6.63211V6.63211ZM21.5543 8.29012C21.4621 8.29012 21.5543 8.19798 21.5543 8.19798V8.29012ZM10.0402 10.0402C10.1323 10.0402 10.0402 10.1323 10.1323 10.2245C10.1323 10.3166 10.1323 10.2245 10.1323 10.2245L10.0402 10.0402C10.1323 10.0402 10.0402 10.1323 10.0402 10.0402C9.94812 9.94811 10.0402 9.94813 10.1323 9.94813L10.0402 10.0402ZM12.343 10.1324V10.0402V10.1324ZM10.5008 10.2245L10.4087 10.3166L10.5008 10.2245C10.4087 10.2245 10.4087 10.2245 10.5008 10.2245ZM10.3166 10.3166C10.3166 10.3166 10.4087 10.3166 10.3166 10.3166V10.3166ZM10.7771 10.4087C10.7771 10.5008 10.685 10.5929 10.7771 10.5929C10.7771 10.5929 10.7771 10.685 10.685 10.685C10.685 10.685 10.5929 10.6851 10.5929 10.7772L10.685 10.685C10.685 10.685 10.685 10.7772 10.7771 10.7772V10.4087ZM10.8692 10.5008C10.7771 10.685 11.0535 10.5929 11.0535 10.7772C10.8692 10.8693 11.0535 10.8692 11.0535 10.9613C11.1456 10.8692 11.0535 10.685 11.2377 10.685L11.1456 10.5929C11.0535 10.5008 10.8692 10.5929 10.8692 10.5008ZM24.1334 12.343C24.1334 12.4351 24.1334 12.4351 24.1334 12.343C24.0413 12.4351 24.1334 12.343 24.1334 12.343ZM23.4886 12.4352C23.4886 12.4352 23.3965 12.5273 23.3965 12.4352H23.4886ZM26.1599 13.3563C26.1599 13.4484 26.0678 13.4484 25.9756 13.4484C25.6993 13.8168 25.2388 14.1853 24.9624 14.6458C25.2388 14.7379 25.5151 14.9222 25.7914 15.0143C26.0678 15.1985 26.5283 15.2906 26.5283 15.7512C26.5283 15.7512 26.6204 15.7512 26.6204 15.6591C26.8047 15.567 26.8047 15.7512 26.8047 15.8433C26.8047 15.4749 26.9889 15.2907 27.1731 14.9222C26.8047 14.6459 26.4362 14.2774 26.252 13.8169C26.1599 13.6326 26.1599 13.2642 26.4362 13.1721C26.1599 13.1721 26.0678 13.2642 26.1599 13.3563ZM19.8962 13.4484C19.8962 13.3563 19.8962 13.4484 19.8962 13.4484V13.4484ZM22.5675 14.5537C22.5675 14.6459 22.5675 14.6458 22.6596 14.6458L22.5675 14.5537ZM17.4092 15.1064C17.0408 14.9222 16.6723 15.1985 16.2118 15.1985C16.1196 15.1985 16.0275 15.2906 15.9354 15.2906C15.7512 15.4749 15.6591 15.8433 15.3828 16.0275L15.2906 15.9354C15.1985 15.9354 15.1985 16.0275 15.1985 16.1197C15.3827 16.3039 15.7512 16.2118 15.9354 16.5802C16.2117 16.7644 16.2117 16.3039 16.396 16.4881C16.396 16.5802 16.396 16.7644 16.3039 16.8565C16.1197 16.8565 16.0275 16.9487 15.9354 16.8565C15.8433 16.7644 15.7512 16.8566 15.6591 16.7645C15.2906 16.5802 15.2906 17.0408 14.9222 17.0408C14.738 17.225 15.2906 17.4092 14.9222 17.5013C14.9222 17.7777 15.1064 17.9619 15.1985 18.054C15.567 18.1461 15.3828 18.5146 15.7512 18.6067C15.8433 18.6988 16.0275 18.6067 16.0275 18.6988C16.2117 18.6067 16.5802 18.7909 16.7644 18.6067C16.9487 18.7909 16.8565 18.4224 17.0408 18.5146C17.3171 18.4224 17.0408 18.3304 17.1329 18.1461C17.225 18.1461 17.225 18.2382 17.3171 18.3303C17.5013 18.4224 17.4092 18.2382 17.5013 18.2382C17.5934 18.1461 17.5934 18.3303 17.6856 18.2382C17.6856 18.1461 17.5934 18.1461 17.5934 18.1461C17.6856 18.054 17.7777 17.9619 17.8698 18.054C17.8698 17.7777 17.7777 18.1461 17.5934 17.9619C17.7777 17.7777 18.054 17.5934 18.054 17.3171C17.9619 17.4092 17.9619 17.225 17.8698 17.3171C17.8698 17.225 17.8698 17.1329 17.9619 17.1329H18.054L18.1461 17.225C18.2382 17.225 18.2382 17.1329 18.2382 17.225C18.3303 17.225 18.2382 17.0408 18.2382 17.0408C18.1461 17.1329 18.1461 16.9486 18.1461 16.9486C18.1461 16.8565 18.1461 16.7645 18.2382 16.7645C18.2382 16.7645 18.3303 16.8565 18.3303 16.9486C18.4224 16.6723 18.3303 16.3039 18.2382 16.0275C18.1461 15.9354 18.1461 15.6591 17.9619 15.567C17.8698 15.4748 17.7777 15.567 17.7777 15.6591H17.6856C17.7777 15.567 17.6856 15.3827 17.5934 15.2906L17.4092 15.3828C17.5013 15.2907 17.5013 15.1985 17.4092 15.1064ZM19.4357 15.1064H19.3436C19.3436 15.1985 19.4357 15.1064 19.4357 15.1064ZM22.5675 15.6591C22.6596 15.6591 22.6596 15.567 22.5675 15.6591C22.6596 15.567 22.5675 15.6591 22.5675 15.6591ZM18.1461 16.0275L18.2382 16.1197V16.0275C18.2382 15.9354 18.054 15.8433 18.1461 16.0275ZM17.9619 15.9354V16.0275C17.9619 16.0275 17.8698 16.0275 17.8698 16.1197C17.8698 16.0275 18.054 16.2118 17.9619 15.9354C18.054 15.9354 17.9619 15.9354 17.9619 15.9354ZM18.3303 16.396L18.2382 16.3039C18.3303 16.3039 18.3303 16.3039 18.3303 16.396ZM18.1461 16.3039V16.5802C18.1461 16.5802 18.054 16.5802 18.054 16.6723H18.1461C18.2382 16.5802 18.1461 16.396 18.1461 16.3039ZM18.4224 16.5802C18.3303 16.7644 18.3303 16.6723 18.4224 16.5802C18.3303 16.5802 18.3303 16.5802 18.4224 16.5802ZM18.1461 17.7777L18.3303 17.3171C18.3303 17.5013 18.2382 17.6856 18.1461 17.7777ZM17.8698 17.5934C17.8698 17.6855 17.6855 17.7777 17.7777 17.7777L17.8698 17.6856L17.9619 17.7777L18.054 17.5934C18.054 17.5013 17.8698 17.6855 17.8698 17.5934ZM25.9756 20.0805L26.0678 19.9884L25.9756 20.0805ZM9.30334 20.1726C9.21123 20.1726 9.30334 20.1726 9.30334 20.1726V20.1726ZM25.2387 20.3568C25.2387 20.2647 25.2387 20.2647 25.2387 20.3568V20.3568ZM8.47434 20.6331V20.541V20.6331ZM8.65855 20.541C8.65855 20.541 8.56643 20.6331 8.56643 20.541L8.47434 20.6331L8.65855 20.541ZM8.9349 20.8174L8.84278 20.9095C8.84278 20.7253 8.84279 20.6331 8.9349 20.8174ZM8.65855 20.8174L8.56643 20.9095L8.65855 20.8174C8.65855 20.8174 8.75066 20.8174 8.65855 20.8174ZM8.2901 21.0016C8.19799 21.0016 8.19798 21.0016 8.19798 21.0937C8.10587 21.0937 8.10589 21.1858 8.01378 21.0937L7.82954 21.1858C8.01377 21.2779 8.10588 21.0937 8.2901 21.0016ZM7.73742 21.4622C7.64531 21.5543 7.64533 21.4621 7.55322 21.5542C7.64533 21.4621 7.73742 21.5543 7.73742 21.4622ZM18.2382 21.7385L18.1461 21.8306L18.2382 21.7385ZM7.55322 21.8306C7.4611 21.8306 7.4611 21.8306 7.4611 21.9227L7.55322 21.8306ZM18.6988 22.7518C18.2382 23.0281 18.054 23.5808 17.5934 23.9492C17.5013 24.1334 17.3171 24.1334 17.3171 24.3176C17.4092 24.3176 17.4092 24.4098 17.4092 24.4098V24.3176H17.5013C17.6856 24.5018 17.9619 24.594 17.9619 24.6861L18.7909 25.2387C18.883 25.2387 18.9751 25.3309 19.0672 25.3309C19.3436 25.5151 19.6199 25.5151 19.9884 25.5151C20.3568 25.5151 20.3568 25.2388 20.541 25.0546C20.4489 24.8703 20.7253 24.8703 20.7253 24.8703C20.8174 24.8703 20.8174 24.7782 20.8174 24.6861C20.7253 24.6861 20.7252 24.594 20.6331 24.5019L20.541 24.594V24.5019H20.4489L20.541 24.594H20.4489C20.3568 24.594 20.4489 24.5019 20.4489 24.5019H20.3568C20.2647 24.594 20.4489 24.6861 20.2647 24.6861C20.1726 24.6861 20.1726 24.594 20.1726 24.5019C20.0805 24.5019 20.1726 24.5019 20.0805 24.594C19.8962 24.6861 20.0805 24.5019 19.9884 24.5019C19.9884 24.5019 20.0805 24.5019 20.0805 24.4098C19.712 24.594 19.8041 24.1334 19.4357 24.1334C19.5278 24.0413 19.3436 24.0413 19.3436 23.9492L19.2515 24.0413C19.1593 23.9492 19.0672 23.9492 19.1593 23.765H19.0672C18.9751 23.765 18.9751 23.6729 18.9751 23.6729C18.7909 23.765 18.883 23.4886 18.6988 23.4886C18.6988 23.3965 18.7909 23.3044 18.7909 23.3965C18.7909 23.3044 18.6988 23.3044 18.6988 23.3044C18.6988 23.3044 18.6988 23.2123 18.7909 23.2123L18.6988 22.7518ZM19.8041 24.3176C19.8041 24.4097 19.712 24.3176 19.6199 24.3176V24.2255C19.712 24.2255 19.712 24.4097 19.8041 24.3176ZM20.1726 24.4098C20.1726 24.4098 20.0805 24.4098 20.1726 24.4098V24.4098ZM17.4092 24.5019C17.4092 24.5019 17.4092 24.594 17.5013 24.594L17.4092 24.5019ZM17.5013 24.6861C17.5013 24.7782 17.5934 24.6861 17.5934 24.6861C17.5934 24.594 17.5934 24.7782 17.5013 24.6861ZM17.225 24.8703C17.225 24.7782 17.225 24.7782 17.225 24.8703V24.8703ZM20.4489 25.1466V25.0546V25.1466ZM103.442 11.1456H50.4775V43.0164H103.534L114.68 26.4362L103.442 11.1456ZM54.6226 38.7792V15.2906H101.323L109.521 26.5283L101.231 38.7792H54.6226Z" fill="black"/>
<path d="M23.2123 44.6744C23.3044 41.819 24.6861 39.7004 27.7258 39.7004C29.2917 39.7004 30.2128 40.253 30.397 40.4372C30.6733 40.6215 30.9497 41.082 30.4891 42.0032C30.1207 42.648 29.8443 42.8322 29.8443 42.8322C29.8443 42.8322 29.1995 42.1874 28.0021 42.1874C26.6204 42.1874 26.0677 43.2928 26.0677 44.6744C26.0677 46.0561 26.7125 47.1615 27.91 47.1615C28.6469 47.1615 29.1074 46.8851 29.2917 46.7009C29.568 46.5167 29.9364 46.3324 30.2128 46.8851L30.7655 47.8984C30.9497 48.1747 31.0418 48.451 30.7655 48.7273C30.3049 49.1879 29.2917 49.6485 27.8179 49.6485C24.7782 49.6485 23.2123 47.5299 23.2123 44.6744ZM17.5013 48.0826C17.5013 48.7274 17.5013 49.5564 18.5145 49.5564H19.6199C20.9094 49.5564 20.6331 48.6353 20.541 47.8984C20.4489 47.3457 20.541 46.2403 20.541 45.8719C21.0015 45.135 23.028 41.6347 23.3965 40.8978C23.6728 40.4372 23.3965 39.8846 22.8438 39.8846H21.5542C20.6331 39.8846 20.4489 40.1609 20.2647 40.6215C20.0804 41.1742 19.4356 42.7401 19.1593 43.5691H19.0672C18.883 43.0164 18.1461 41.3584 17.9619 40.7136C17.8697 40.3452 17.6855 39.8846 16.9486 39.8846H15.7512C14.7379 39.8846 15.0143 40.6215 15.1985 40.8978C15.4748 41.3584 17.225 44.8587 17.6855 45.7798C17.5013 46.1482 17.5013 47.2536 17.5013 48.0826ZM5.34247 48.0826C5.34247 48.7274 5.34248 49.5564 6.35571 49.5564H7.46107C8.75064 49.5564 8.4743 48.6353 8.38219 47.8984C8.38219 47.5299 8.19796 44.8587 8.19796 43.9376H8.38219C9.11909 45.0429 11.1456 47.7141 11.1456 48.3589C11.1456 48.9116 11.3298 49.5564 12.1588 49.5564H13.172C14.4616 49.5564 14.1852 48.6353 14.0931 47.8984C14.001 46.8851 14.1852 42.0032 14.1852 41.2663C14.1852 40.6215 14.1852 39.7925 13.172 39.7925H12.1588C11.1456 39.7925 11.1456 40.1609 11.1456 40.5294C11.1456 40.7136 11.2377 43.5691 11.3298 44.2139H11.2377L8.01375 39.7925H6.44783C5.15826 39.7925 5.43459 40.6215 5.43459 41.3584C5.43459 41.8189 5.43458 46.4246 5.34247 48.0826ZM29.9364 38.8714H28.9232C27.8179 38.8714 27.8179 38.0423 27.7258 37.6739C27.6336 37.4897 27.6336 37.2134 27.4494 36.8449H24.9624C24.8703 37.3055 24.7782 37.5818 24.7782 37.6739C24.7782 38.4108 24.5939 38.8714 23.6728 38.8714H22.199C21.4621 38.8714 21.4621 38.0424 21.6463 37.4897C22.1069 35.7396 23.4886 30.4892 23.6728 29.9365C23.857 29.1996 23.857 28.739 25.0545 28.739H27.4494C28.3705 28.739 28.6469 29.1996 28.739 29.8443C28.8311 30.397 30.3049 36.2922 30.4891 37.3976C30.7655 38.0423 30.9497 38.8714 29.9364 38.8714ZM27.081 34.8184L26.252 30.6734H26.1598C26.0677 31.4103 25.6072 33.2525 25.3308 34.8184H27.081ZM14.83 37.6739C14.9222 38.3187 15.1985 38.7792 16.1196 38.7792H18.5145C19.712 38.7792 19.8041 38.2266 19.8962 37.5818C19.9883 37.0291 21.37 31.7787 21.8306 30.0286C22.0148 29.3838 22.0148 28.6469 21.2779 28.6469H19.8041C18.883 28.6469 18.7909 29.1074 18.6987 29.8443C18.6066 30.3049 17.5934 35.4632 17.3171 36.8449H17.225L15.8433 29.7523C15.7512 29.3838 15.659 28.5548 14.6458 28.5548H13.6326C12.6193 28.5548 12.8957 29.2917 12.9878 30.0286C13.2641 31.3181 14.6458 37.1212 14.83 37.6739ZM5.80303 38.595C6.17148 38.6871 7.18472 38.9635 8.19796 38.9635C10.5929 38.9635 12.4351 37.766 12.2509 35.4632C12.1588 34.2658 11.6061 33.1604 9.67176 32.6999L8.65852 32.4235C8.01373 32.2393 7.6453 32.055 7.55319 31.6866C7.55319 31.226 7.92162 30.9497 8.65852 30.9497C9.94809 30.9497 11.1456 31.5024 11.1456 31.5024L11.514 30.7655C11.8825 29.568 11.6982 29.1996 10.8692 28.9232C10.5008 28.739 9.48754 28.5548 8.38219 28.5548C6.07939 28.5548 4.42136 29.8444 4.60558 32.0551C4.6977 33.7131 5.61882 34.3579 7.00051 34.7263L7.92163 34.9105C8.84275 35.0947 9.11908 35.3711 9.11908 35.8316C9.11908 36.2922 8.75065 36.5686 8.01375 36.5686C6.35573 36.5686 5.34247 35.9238 5.34247 35.9238C5.34247 35.9238 5.06613 36.2922 4.88191 36.8449C4.69768 37.766 4.7898 38.2266 5.80303 38.595ZM125.457 34.5421H128.681V19.712H125.457V34.5421ZM140.563 25.3309L144.708 19.712H140.747L138.537 22.6596L140.563 25.3309ZM140.563 28.2785L138.629 30.9497L141.208 34.5421H145.169L140.563 28.2785ZM159.63 27.081C159.63 31.0418 157.604 34.1736 152.814 34.45H146.643V19.712H152.906C154.656 19.8041 156.683 20.2647 158.157 22.199C159.17 23.4886 159.63 24.9624 159.63 26.6204V27.081C159.63 27.081 159.63 26.9889 159.63 27.081ZM156.499 27.081C156.499 26.0677 156.222 24.9624 155.485 24.1334C154.841 23.3965 153.827 22.8438 151.985 22.8438H149.867V31.4103H151.985C155.209 31.4103 156.499 29.4759 156.499 27.081ZM88.1514 22.8438V19.712H76.4531V34.5421H79.677V28.739H85.8486V25.6072H79.677V22.8438H88.1514ZM70.8343 19.712L66.3208 26.1599L61.8073 19.712H58.9518V34.5421H62.1757V25.6072L66.3208 31.0418L70.4658 25.6072V34.6342H73.6898V19.8041H70.8343V19.712ZM96.8099 32.5156H90.0857L89.0725 34.5421H85.4801L86.4933 32.5156L88.0593 29.3838L91.5595 22.4754L93.3097 18.9751L95.0598 22.4754L98.6522 29.3838L100.218 32.5156L101.231 34.5421H97.6389L96.8099 32.5156ZM95.244 29.3838L93.4939 25.9757L91.7438 29.3838H95.244Z" fill="black"/>
</svg>
