<?xml version="1.0" encoding="utf-8"?>
<!-- Generator: Adobe Illustrator 24.1.2, SVG Export Plug-In . SVG Version: 6.00 Build 0)  -->
<svg version="1.1" id="Layer_1" xmlns="http://www.w3.org/2000/svg" xmlns:xlink="http://www.w3.org/1999/xlink" x="0px" y="0px"
	 viewBox="0 0 492.84 152.56" style="enable-background:new 0 0 492.84 152.56;" xml:space="preserve">
<style type="text/css">
	.st0{fill:#323232;}
	.st1{fill:#FFFFFF;}
</style>
<g>
	<g id="XMLID_1_">
		<g>
			<path class="st0" d="M492.84,69.15v9.43c0,19.82-7.95,32.82-22.7,37.86c-5.68,4.41-13.45,6.86-23.57,6.86
				c-23.77,0-34.9-13.85-35.71-35.16c-2.23,14.47-9.77,24.12-22,28.3c-5.68,4.41-13.46,6.86-23.57,6.86
				c-24.72,0-35.77-14.96-35.77-37.72v-9.43c0-12.71,3.41-22.18,9.77-28.41c5.8-12.05,17.38-18.48,34-18.48
				c23.91,0,37.42,13.31,38.22,37.55c1.3-8.11,4.38-14.48,9.07-19.07c5.8-12.05,17.37-18.48,33.99-18.48
				C479.25,29.26,492.84,43.43,492.84,69.15z M487.84,78.58v-9.43c0-23.15-11.2-34.89-33.27-34.89c-21.76,0-33.27,12.07-33.27,34.89
				v9.43c0,16.07,5.78,35.22,33.27,35.22C476.64,113.8,487.84,101.95,487.84,78.58z M406.55,78.58v-9.43
				c0-23.15-11.19-34.89-33.26-34.89c-21.77,0-33.27,12.07-33.27,34.89v9.43c0,16.07,5.77,35.22,33.27,35.22
				C395.36,113.8,406.55,101.95,406.55,78.58z"/>
			<path class="st1" d="M487.84,69.15v9.43c0,23.37-11.2,35.22-33.27,35.22c-27.49,0-33.27-19.15-33.27-35.22v-9.43
				c0-22.82,11.51-34.89,33.27-34.89C476.64,34.26,487.84,46,487.84,69.15z M468.45,77.44v-7.15c0-10.16-1.65-20.55-13.88-20.55
				c-12.23,0-13.88,10.39-13.88,20.55v7.15c0,7.81,0,20.87,13.88,20.87S468.45,85.25,468.45,77.44z"/>
			<path class="st0" d="M468.45,70.29v7.15c0,7.81,0,20.87-13.88,20.87s-13.88-13.06-13.88-20.87v-7.15
				c0-10.16,1.65-20.55,13.88-20.55C466.8,49.74,468.45,60.13,468.45,70.29z M457.95,84.44v-7.15c0-11.77-2.51-17.76-10.83-18.02
				c-0.94,2.36-1.43,5.86-1.43,11.02v7.15c0,12.32,1.99,15.87,8.88,15.87c1.06,0,1.99-0.09,2.83-0.28
				C457.83,90.52,457.95,87.62,457.95,84.44z"/>
			<path class="st1" d="M406.55,69.15v9.43c0,23.37-11.19,35.22-33.26,35.22c-27.5,0-33.27-19.15-33.27-35.22v-9.43
				c0-22.82,11.5-34.89,33.27-34.89C395.36,34.26,406.55,46,406.55,69.15z M387.17,77.44v-7.15c0-10.16-1.65-20.55-13.88-20.55
				c-12.23,0-13.88,10.39-13.88,20.55v7.15c0,7.81,0,20.87,13.88,20.87S387.17,85.25,387.17,77.44z"/>
			<path class="st0" d="M387.17,70.29v7.15c0,7.81,0,20.87-13.88,20.87s-13.88-13.06-13.88-20.87v-7.15
				c0-10.16,1.65-20.55,13.88-20.55C385.52,49.74,387.17,60.13,387.17,70.29z M376.67,84.44v-7.15c0-11.77-2.51-17.76-10.83-18.02
				c-0.95,2.36-1.43,5.86-1.43,11.02v7.15c0,12.32,1.99,15.87,8.88,15.87c1.06,0,1.99-0.09,2.83-0.28
				C376.54,90.52,376.67,87.62,376.67,84.44z"/>
			<path class="st0" d="M327.83,0v117.17h-10.5v4.5h-24.38v-3.57c-3.91,3.25-8.95,5.2-15.29,5.2c-20.81,0-31.86-14.96-31.86-36.74
				V75.18c0-12.68,3.67-22.14,9.93-28.24c5.54-11.24,16-17.68,29.93-17.68c2.58,0,5,0.26,7.29,0.77V9.5h5.5V0H327.83z
				 M322.83,112.17V5h-19.38v35.97l-3.94-2.78c-3.71-2.61-8.37-3.93-13.85-3.93c-18.38,0-29.36,12.68-29.36,33.92v11.38
				c0,21.44,10.98,34.24,29.36,34.24c5.4,0,10-1.56,13.68-4.62l4.11-3.42v6.41H322.83z"/>
			<path class="st1" d="M322.83,5v107.17h-19.38v-6.41l-4.11,3.42c-3.68,3.06-8.28,4.62-13.68,4.62c-18.38,0-29.36-12.8-29.36-34.24
				V68.18c0-21.24,10.98-33.92,29.36-33.92c5.48,0,10.14,1.32,13.85,3.93l3.94,2.78V5H322.83z M303.45,77.44V68.5
				c0-8.05-1.44-18.76-13.88-18.76c-12.24,0-13.89,10.39-13.89,20.55v7.15c0,7.81,0,20.87,13.89,20.87
				C303.45,98.31,303.45,85.25,303.45,77.44z"/>
			<path class="st0" d="M303.45,68.5v8.94c0,7.81,0,20.87-13.88,20.87c-13.89,0-13.89-13.06-13.89-20.87v-7.15
				c0-10.16,1.65-20.55,13.89-20.55C302.01,49.74,303.45,60.45,303.45,68.5z M292.95,84.44V75.5c0-10.64-2.97-15.99-10.83-16.23
				c-0.95,2.36-1.44,5.86-1.44,11.02v7.15c0,12.32,2,15.87,8.89,15.87c1.06,0,1.99-0.09,2.82-0.28
				C292.82,90.52,292.95,87.62,292.95,84.44z"/>
			<path class="st0" d="M256.46,30.89l-29.55,88.8c-5.32,15.95-11.39,23.22-21.7,26.3c-6.18,5.34-14.51,6.57-27.53,6.57V131.1
				c2.08,0,3.88-0.06,5.5-0.2v-9.3h2.5c4.18,0,7.14-0.23,9.33-0.79l-22.77-63.44c0.77,4,1.16,8.41,1.16,13.25v12.09h-10.5v4.5
				h-10.53l20.53,14.37l-1.14,1.98c-3.68,6.42-9.02,10.71-16.35,13.06c-5.76,4.65-13.65,6.68-24.05,6.68
				c-14.53,0-24.38-5.31-30.19-13.57l4.34,7.44H90.53l2.63,4.5H60.97L39.34,83.21l-1.85,2.53v31.43h-10.5v4.5H0V9.5h5.5V0h31.99
				v36.02L55.93,9.5h0.08L62.62,0h37.61L65.12,48.01l33.38,57.15c-2.63-5.47-3.89-11.83-3.89-18.6V75.18
				c0-13.02,3.48-22.29,9.75-28.22c5.61-11.54,16.64-17.7,32.39-17.7c14.64,0,24.92,5.05,30.8,15.05l-1.41-3.92H174l-3.41-9.5h30.88
				l11.5,34.84l7.63-25.34h3.28l2.87-9.5H256.46z M222.17,118.11l27.35-82.22h-19.06l-15.57,51.65l-17.03-51.65H177.7l28.7,79.96
				l-0.34,0.87c-3.03,7.75-8.29,9.61-17.88,9.85v16.48C208.09,142.78,215.23,138.94,222.17,118.11z M168.4,77.71v-7.09
				c0-24.81-10.06-36.36-31.65-36.36c-20.99,0-31.64,11.41-31.64,33.92v11.38c0,10.29,3.34,34.24,34.25,34.24
				c13.27,0,21.67-3.35,26.85-10.8l-14.02-9.81c-2.73,3.21-5.52,5.12-12.67,5.12c-12.75,0-14.72-9.63-15.02-18.01l-0.09-2.59H168.4z
				 M149.57,88.48l1-1.27h-20.13c1.3,4.44,4.04,6.1,9.08,6.1C145.79,93.31,146.9,91.9,149.57,88.48z M96.8,112.17L59.15,47.7
				L90.38,5H65.23L32.49,52.09V5H10.5v107.17h21.99V84.1l12.53-17.12l25.41,45.19H96.8z"/>
			<path class="st1" d="M249.52,35.89l-27.35,82.22c-6.94,20.83-14.08,24.67-33.99,24.94v-16.48c9.59-0.24,14.85-2.1,17.88-9.85
				l0.34-0.87l-28.7-79.96h20.16l17.03,51.65l15.57-51.65H249.52z"/>
			<path class="st1" d="M168.4,70.62v7.09h-43.99l0.09,2.59c0.3,8.38,2.27,18.01,15.02,18.01c7.15,0,9.94-1.91,12.67-5.12
				l14.02,9.81c-5.18,7.45-13.58,10.8-26.85,10.8c-30.91,0-34.25-23.95-34.25-34.24V68.18c0-22.51,10.65-33.92,31.64-33.92
				C158.34,34.26,168.4,45.81,168.4,70.62z M149.15,66.45l-0.14-2.64c-0.52-9.46-4.47-14.07-12.09-14.07
				c-7.3,0-11.42,4.71-12.25,13.99l-0.24,2.72H149.15z"/>
			<path class="st0" d="M149.01,63.81l0.14,2.64h-24.72l0.24-2.72c0.83-9.28,4.95-13.99,12.25-13.99
				C144.54,49.74,148.49,54.35,149.01,63.81z M130.03,61.45h5.3c-1.24-1.22-2.83-1.88-4.73-2.1
				C130.38,59.97,130.19,60.66,130.03,61.45z"/>
			<polygon class="st1" points="59.15,47.7 96.8,112.17 70.43,112.17 45.02,66.98 32.49,84.1 32.49,112.17 10.5,112.17 10.5,5 
				32.49,5 32.49,52.09 65.23,5 90.38,5 			"/>
		</g>
		<g>
		</g>
	</g>
</g>
</svg>
